<svg xmlns="http://www.w3.org/2000/svg" width="32" height="32" viewBox="0 0 32 32">
  <g id="Group_46279" data-name="Group 46279" transform="translate(-701.23)">
    <rect id="Rectangle_6707" data-name="Rectangle 6707" width="32" height="32" transform="translate(701.23)" fill="none" opacity="0"/>
    <g id="icons8-instagram" transform="translate(705 3.5)">
      <path id="Path_24024" data-name="Path 24024" d="M24.665,29.978l-13.326.013A5.347,5.347,0,0,1,6,24.665L5.99,11.339A5.347,5.347,0,0,1,11.315,6L24.642,5.99a5.347,5.347,0,0,1,5.336,5.325l.013,13.326A5.345,5.345,0,0,1,24.665,29.978Z" transform="translate(-5.99 -5.99)" fill="#e9e9e9"/>
      <path id="Path_24025" data-name="Path 24025" d="M24.665,29.978l-13.326.013A5.347,5.347,0,0,1,6,24.665L5.99,11.339A5.347,5.347,0,0,1,11.315,6L24.642,5.99a5.347,5.347,0,0,1,5.336,5.325l.013,13.326A5.345,5.345,0,0,1,24.665,29.978Z" transform="translate(-5.99 -5.99)" fill="#e9e9e9"/>
      <path id="Path_24026" data-name="Path 24026" d="M21.664,26.329a4.664,4.664,0,1,1,4.664-4.664A4.67,4.67,0,0,1,21.664,26.329Zm0-8A3.332,3.332,0,1,0,25,21.664,3.335,3.335,0,0,0,21.664,18.333Z" transform="translate(-9.664 -9.664)" fill="#0c0c0c"/>
      <circle id="Ellipse_250" data-name="Ellipse 250" cx="1" cy="1" r="1" transform="translate(16.231 6.5)" fill="#0c0c0c"/>
      <path id="Path_24027" data-name="Path 24027" d="M23.66,28.324h-8A4.67,4.67,0,0,1,11,23.66v-8A4.67,4.67,0,0,1,15.664,11h8a4.67,4.67,0,0,1,4.664,4.664v8A4.67,4.67,0,0,1,23.66,28.324Zm-8-15.992a3.335,3.335,0,0,0-3.332,3.332v8a3.335,3.335,0,0,0,3.332,3.332h8a3.335,3.335,0,0,0,3.332-3.332v-8a3.335,3.335,0,0,0-3.332-3.332Z" transform="translate(-7.662 -7.662)" fill="#0c0c0c"/>
    </g>
  </g>
</svg>
