<svg xmlns="http://www.w3.org/2000/svg" width="24" height="24" viewBox="0 0 24 24">
  <g id="Group_46284" data-name="Group 46284" transform="translate(-0.221)">
    <rect id="Rectangle_687" data-name="Rectangle 687" width="24" height="24" transform="translate(0.221)" fill="none" opacity="0"/>
    <g id="Icon_email" data-name="Icon/email" transform="translate(2 4)">
      <path id="_Icon_Сolor" data-name="🎨 Icon Сolor" d="M17,16H3a3,3,0,0,1-3-3V3A3,3,0,0,1,3,0H17a3,3,0,0,1,3,3V13A3,3,0,0,1,17,16ZM2,3.25V13a1,1,0,0,0,1,1H17a1,1,0,0,0,1-1V3.25L10.6,8.8a1,1,0,0,1-1.2,0ZM3.667,2,10,6.75,16.333,2Z" fill="#e1e1e1"/>
    </g>
  </g>
</svg>
