<svg xmlns="http://www.w3.org/2000/svg" width="24" height="24" viewBox="0 0 24 24">
  <g id="Icon_search" data-name="Icon/search" opacity="0.5">
    <rect id="Rectangle_1975" data-name="Rectangle 1975" width="24" height="24" fill="none" opacity="0"/>
    <g id="Icon_search-2" data-name="Icon/search" transform="translate(6.004 6)">
      <path id="_Icon_Сolor" data-name="🎨 Icon Сolor" d="M11.338,12a.663.663,0,0,1-.472-.2L8.6,9.541a5.277,5.277,0,0,1-3.263,1.125,5.333,5.333,0,1,1,5.335-5.333A5.271,5.271,0,0,1,9.545,8.6l2.264,2.267A.667.667,0,0,1,11.338,12Zm-6-10.667a4,4,0,1,0,4,4,4,4,0,0,0-4-4Z" transform="translate(0 0)" fill="#1c1c1c"/>
    </g>
  </g>
</svg>
