<svg xmlns="http://www.w3.org/2000/svg" width="24" height="24" viewBox="0 0 24 24">
  <g id="Group_46283" data-name="Group 46283" transform="translate(-0.096)">
    <rect id="Rectangle_5064" data-name="Rectangle 5064" width="24" height="24" transform="translate(0.096)" fill="none" opacity="0"/>
    <g id="Icon_phone" data-name="Icon/phone" transform="translate(2 2)">
      <path id="_Icon_Сolor" data-name="🎨 Icon Сolor" d="M15.4,20A15.417,15.417,0,0,1,0,4.6,4.605,4.605,0,0,1,4.6,0a4.483,4.483,0,0,1,.766.065,4.353,4.353,0,0,1,.725.184A1,1,0,0,1,6.738.97L8.107,6.934a1,1,0,0,1-.253.916c-.135.141-.137.144-1.38.794a9.927,9.927,0,0,0,4.88,4.883c.65-1.241.653-1.244.8-1.381a1,1,0,0,1,.7-.278,1.02,1.02,0,0,1,.22.024l5.965,1.37a.991.991,0,0,1,.72.645,4.375,4.375,0,0,1,.184.732A4.511,4.511,0,0,1,20,15.4,4.605,4.605,0,0,1,15.4,20ZM4.6,2A2.6,2.6,0,0,0,2,4.6,13.415,13.415,0,0,0,15.4,18,2.6,2.6,0,0,0,18,15.4a2.653,2.653,0,0,0-.021-.328l-4.621-1.06-.073.14c-.07.134-.143.273-.211.4-.368.7-.659,1.257-1.2,1.257a1.135,1.135,0,0,1-.424-.093A11.848,11.848,0,0,1,4.27,8.51c-.358-.786.323-1.141,1.185-1.591l.536-.281L4.928,2.021A2.547,2.547,0,0,0,4.6,2Z" transform="translate(0 0)" fill="#e1e1e1"/>
    </g>
  </g>
</svg>
