<svg xmlns="http://www.w3.org/2000/svg" width="24" height="24" viewBox="0 0 24 24">
  <g id="Group_52053" data-name="Group 52053" transform="translate(0.066 0.066)">
    <rect id="Rectangle_1975" data-name="Rectangle 1975" width="24" height="24" transform="translate(-0.066 -0.066)" fill="none" opacity="0"/>
    <g id="Icon_heart-fill" data-name="Icon/heart-fill" transform="translate(1.933 2.932)">
      <path id="_Icon_Сolor" data-name="🎨 Icon Сolor" d="M10,18h0a.972.972,0,0,1-.708-.311L1.527,9.451a5.788,5.788,0,0,1,0-7.835,5.03,5.03,0,0,1,7.389,0L10,2.768l1.084-1.15a5.03,5.03,0,0,1,7.39,0,5.789,5.789,0,0,1,0,7.835l-7.764,8.236A.972.972,0,0,1,10,18" transform="translate(0 0.001)" fill="#fff"/>
    </g>
  </g>
</svg>
