<svg xmlns="http://www.w3.org/2000/svg" width="32" height="32" viewBox="0 0 32 32">
  <g id="Group_46282" data-name="Group 46282" transform="translate(-701.23)">
    <rect id="Rectangle_6707" data-name="Rectangle 6707" width="32" height="32" transform="translate(701.23)" fill="none" opacity="0"/>
    <g id="icons8-youtube" transform="translate(705 6.5)">
      <path id="Path_24020" data-name="Path 24020" d="M25.461,22.94a2.992,2.992,0,0,1-2.513,2.4A62.172,62.172,0,0,1,13.97,26a63.655,63.655,0,0,1-8.978-.66,2.991,2.991,0,0,1-2.513-2.4A35.194,35.194,0,0,1,2,17a35.194,35.194,0,0,1,.479-5.94,2.992,2.992,0,0,1,2.513-2.4A62.172,62.172,0,0,1,13.97,8a62.907,62.907,0,0,1,8.978.66,2.991,2.991,0,0,1,2.513,2.4A34.109,34.109,0,0,1,26,17,41.31,41.31,0,0,1,25.461,22.94Z" transform="translate(-2 -8)" fill="#e9e9e9"/>
      <path id="Path_24021" data-name="Path 24021" d="M25.888,19.036,19.6,14.681a.994.994,0,0,0-1.058-.053,1.076,1.076,0,0,0-.545.944v8.711a1.077,1.077,0,0,0,.545.945,1,1,0,0,0,1.057-.053l6.285-4.356a1.1,1.1,0,0,0,0-1.783Z" transform="translate(-9.308 -10.927)" fill="#e9e9e9" opacity="0.05"/>
      <path id="Path_24022" data-name="Path 24022" d="M19.7,15.138l5.93,4.119c.379.283.634.537.634.866a.884.884,0,0,1-.393.764c-.2.155-6.071,4.216-6.071,4.216-.5.346-1.3.273-1.3-.858V16C18.5,14.853,19.371,14.91,19.7,15.138Z" transform="translate(-9.533 -11.155)" fill="#e9e9e9" opacity="0.07"/>
      <path id="Path_24023" data-name="Path 24023" d="M19,24.721V16.036a.511.511,0,0,1,.8-.444l6.239,4.343a.547.547,0,0,1,0,.889L19.8,25.167A.511.511,0,0,1,19,24.721Z" transform="translate(-9.758 -11.378)" fill="#0c0c0c"/>
    </g>
  </g>
</svg>
