<svg xmlns="http://www.w3.org/2000/svg" width="24" height="24" viewBox="0 0 24 24">
  <g id="Icon_shopping-cart-fill" data-name="Icon/shopping-cart-fill" transform="translate(0.408 0.408)">
    <rect id="Rectangle_7065" data-name="Rectangle 7065" width="24" height="24" transform="translate(-0.408 -0.408)" fill="none" opacity="0"/>
    <g id="Icon_shopping-cart-fill-2" data-name="Icon/shopping-cart-fill" transform="translate(2.593 3.593)">
      <path id="_Icon_Сolor" data-name="🎨 Icon Сolor" d="M13,14.667A1.394,1.394,0,1,1,14.395,16,1.364,1.364,0,0,1,13,14.667Zm-9.287,0a1.364,1.364,0,0,1,1.393-1.333,1.335,1.335,0,1,1,0,2.667A1.364,1.364,0,0,1,3.715,14.667Zm1.857-3.111a.923.923,0,0,1-.9-.654l-2.6-9.124H.929A.909.909,0,0,1,0,.889.909.909,0,0,1,.929,0H2.786a.923.923,0,0,1,.9.655l.572,2.012H16.143a1.877,1.877,0,0,1,1.58.843,1.712,1.712,0,0,1,.082,1.73l-3.042,5.825a.934.934,0,0,1-.831.492Z" transform="translate(0 0)" fill="#fff"/>
    </g>
  </g>
</svg>
