<svg xmlns="http://www.w3.org/2000/svg" width="32" height="32" viewBox="0 0 32 32">
  <g id="Group_46280" data-name="Group 46280" transform="translate(-701.23)">
    <rect id="Rectangle_6707" data-name="Rectangle 6707" width="32" height="32" transform="translate(701.23)" fill="none" opacity="0"/>
    <g id="icons8-linkedin" transform="translate(705 3.5)">
      <path id="Path_24018" data-name="Path 24018" d="M30,26.667A3.333,3.333,0,0,1,26.667,30H9.333A3.333,3.333,0,0,1,6,26.667V9.333A3.333,3.333,0,0,1,9.333,6H26.667A3.333,3.333,0,0,1,30,9.333Z" transform="translate(-6 -6)" fill="#e9e9e9"/>
      <path id="Path_24019" data-name="Path 24019" d="M12,16.648h3.32V27.937H12Zm1.65-1.328h-.019A1.66,1.66,0,0,1,13.669,12a1.66,1.66,0,1,1-.019,3.32ZM27.937,27.937h-3.32V21.9a2.166,2.166,0,0,0-2.12-2.456,1.9,1.9,0,0,0-1.8,1.321,4.79,4.79,0,0,0-.067,1.2v5.977h-3.32V16.648h3.32v1.737a3.359,3.359,0,0,1,3.146-1.737c2.376,0,4.158,1.494,4.158,4.83v6.459Z" transform="translate(-7.969 -7.969)" fill="#0c0c0c"/>
    </g>
  </g>
</svg>
